# xmcd
#
# Track frame offsets:
#	150
#	19515
#	39698
#	56414
#	74120
#	91796
#	108754
#	126448
#	144790
#	161960
#	179449
#	214572
#	233170
#	250856
#	267388
#	281104
#	298680
#	312112
#	325848
#
# Disc length: 4490 seconds
#
# Revision: 1
# Processed by: cddbd v1.5.2PL0 Copyright (c) Steve Scherf et al.
# Submitted via: audiograbber 1.83.01
#
DISCID=1a118813
DTITLE=GARAVELAS NIKOS [2007] CD2 - TIMELESS 2 [38 COUNTRY LOVE BALLADS]
DYEAR=2007
DGENRE=
TTITLE0=LEE ANN WOMACK - LITTLE PAST LITTLE ROCK
TTITLE1=JAMIE O'NEAL - I'M NOT GONNA DO ANYTHING WITHOUT YOU
TTITLE2=GARY NICHOLS - I CAN'T LOVE YOU ANYMORE
TTITLE3=HOT APPLE PIE - EASY DOES IT
TTITLE4=RONAN KEATING - THIS I PROMISE YOU
TTITLE5=McALYSTER - I KNOW HOW THE RIVER FEELS
TTITLE6=REBA Mc ENTIRE- YOU 'RE GONNA BE
TTITLE7=BILLY CURRINGTON - MUST BE DOIN' SOMETHING RIGHT
TTITLE8=THE RANDY ROGERS BAND - KISS ME IN THE DARK
TTITLE9=HANNA-Mc EUEN - SOMETHING LIKE A BROKEN HEART
TTITLE10=LYNYRD SKYNYRD - SIMPLE MAN
TTITLE11=SHOOTER JENNINGS - GONE TO CAROLINA
TTITLE12=ALISON MOORER - ALABAMA SONG
TTITLE13=GARY ALLAN - WHAT I'D SAY
TTITLE14=TOBY KEITH - CRASH HERE TONIGHT
TTITLE15=SHANNON LAWSON - DREAM YOUR WAY TO ME
TTITLE16=GEORGE STRAIT - YOU LOOK SO GOOD IN LOVE
TTITLE17=HOLLY WILLIAMS - SOMETIMES
TTITLE18=HANK WILLIAMS - WEARY BLUES FROM WAITIN'
EXTD=
EXTT0=
EXTT1=
EXTT2=
EXTT3=
EXTT4=
EXTT5=
EXTT6=
EXTT7=
EXTT8=
EXTT9=
EXTT10=
EXTT11=
EXTT12=
EXTT13=
EXTT14=
EXTT15=
EXTT16=
EXTT17=
EXTT18=
PLAYORDER=
